<?xml version="1.0" encoding="UTF-8" standalone="no"?>
<svg
   id="Bold"
   viewBox="0 0 225.77 323.63"
   version="1.1"
   width="225.77"
   height="323.63">
  <defs
     id="defs673">
    <style
       id="style671">.cls-1{fill:#1c29d3;}.cls-2{fill:#fff;}</style>
  </defs>
  <g
     id="Group_127"
     data-name="Group 127"
     transform="translate(-147.92,-83.15)">
    <g
       id="Path_36"
       data-name="Path 36">
      <path
         fill="#1c29d3"
         d="m 260.81,399 c -8.6,-11.6 -30.67,-42 -52.5,-76.71 -36.43,-58 -55.68,-101.61 -55.68,-126.21 A 108.18501,108.18501 0 0 1 369,196 c 0,24.6 -19.26,68.24 -55.69,126.21 C 291.47,357 269.4,387.35 260.81,399 Z"
         id="path675" />
      <path
         fill="#fff"
         d="M 260.81,92.56 A 103.47,103.47 0 0 0 157.33,196 c 0,16.53 9.53,51.4 54.93,123.65 19.06,30.35 38.32,57.35 48.55,71.35 10.23,-14 29.48,-41 48.54,-71.34 45.4,-72.25 54.93,-107.12 54.93,-123.65 A 103.47,103.47 0 0 0 260.81,92.56 m 0,-9.41 A 112.88,112.88 0 0 1 373.69,196 c 0,62.35 -112.88,210.78 -112.88,210.78 0,0 -112.89,-148.4 -112.89,-210.78 A 112.88,112.88 0 0 1 260.81,83.15 Z"
         id="path677" />
    </g>
    <g
       id="Group_125"
       data-name="Group 125">
      <path
         id="Path_5"
         data-name="Path 5"
         fill="#fff"
         d="M 303.28,169.87 280.52,146.8 c -12.13,4.11 -54.63,6.27 -44.93,39.51 0,0.1 0.06,0.19 0.06,0.3 h 12.87 a 2.81,2.81 0 0 1 0.3,-0.81 15.6,15.6 0 0 1 12.72,-7.88 16.18,16.18 0 0 1 14.29,7.58 2.58,2.58 0 0 1 -0.2,3.23 l -2.53,2.52 -16.93,16.94 a 6.76,6.76 0 0 0 -1.32,8.08 6.58,6.58 0 0 0 9.09,2 7.66,7.66 0 0 0 1,-0.74 l 15.54,-15.81 6.36,-6.46 z" />
      <path
         id="Path_6"
         data-name="Path 6"
         fill="#fff"
         d="m 311.52,169.88 c 1.7,0 1.88,-1.18 7.46,-6.46 a 2.51,2.51 0 0 0 0,-3.54 v 0 c -28.9,-28.5 -27.8,-28.76 -29.82,-28.76 a 2.5,2.5 0 0 0 -1.77,0.76 c -4.95,5.27 -6.26,5.49 -6.26,7.32 0,1.48 1.09,2 1.71,2.82 0.5,0.29 26.34,26.67 26.86,27.16 a 3.21,3.21 0 0 0 1.82,0.75 z" />
      <path
         id="Path_7"
         data-name="Path 7"
         class="cls-2"
         d="m 252.86,205.36 c 0,0 14.38,-14.56 14.33,-14.6 h -48.75 a 2.36,2.36 0 0 0 -2.39,2.33 v 50.18 a 2.36,2.36 0 0 0 2.34,2.39 h 62.21 a 2.39,2.39 0 0 0 2.39,-2.39 v -37.72 l -15.13,15.37 a 10.77,10.77 0 0 1 -16.5,-13.73 13.55,13.55 0 0 1 1.5,-1.79 z m -1.5,1.79 a 12.54,12.54 0 0 1 1.46,-1.79 13.12,13.12 0 0 0 -1.46,1.79 z" />
    </g>
  </g>
</svg>
