<svg id="Bold" xmlns="http://www.w3.org/2000/svg" viewBox="0 0 512 512"><g id="Group_125" data-name="Group 125"><path id="Path_5" data-name="Path 5" d="M344.58,208.85l-50.72-51.41c-27,9.16-121.7,14-100.09,88,0,.23.12.44.12.67h28.67a6.4,6.4,0,0,1,.67-1.8,34.7,34.7,0,0,1,28.34-17.54,36,36,0,0,1,31.83,16.87,5.76,5.76,0,0,1-.44,7.21l-5.64,5.61L239.6,294.21a15.09,15.09,0,0,0-2.93,18,14.67,14.67,0,0,0,20.26,4.46,16.07,16.07,0,0,0,2.12-1.65l34.64-35.21,14.17-14.4Z"/><path id="Path_6" data-name="Path 6" d="M362.91,208.87c3.8,0,4.19-2.64,16.64-14.4a5.57,5.57,0,0,0,.1-7.88l-.1-.1C315.15,123,317.6,122.4,313.1,122.4a5.67,5.67,0,0,0-3.94,1.7c-11,11.73-13.94,12.24-13.94,16.3,0,3.29,2.43,4.55,3.82,6.29,1.11.65,58.68,59.41,59.83,60.5a7.11,7.11,0,0,0,4,1.68Z"/><path id="Path_7" data-name="Path 7" d="M232.24,287.92s32-32.44,31.92-32.55H155.56a5.27,5.27,0,0,0-5.32,5.2V372.38a5.25,5.25,0,0,0,5.2,5.32H294.05a5.34,5.34,0,0,0,5.32-5.32v-84l-33.72,34.24a24.32,24.32,0,0,1-17.23,7.13A24,24,0,0,1,228.89,292a31.18,31.18,0,0,1,3.35-4Zm-3.35,4a27.55,27.55,0,0,1,3.25-4A28.81,28.81,0,0,0,228.89,291.9Z"/></g></svg>