<svg id="Bold" xmlns="http://www.w3.org/2000/svg" viewBox="0 0 512 512"><defs><style>.cls-1{fill:#1c29d3;}.cls-2{fill:#fff;}</style></defs><g id="Group_127" data-name="Group 127"><g id="Path_36" data-name="Path 36"><path class="cls-1" d="M260.81,399c-8.6-11.6-30.67-42-52.5-76.71-36.43-58-55.68-101.61-55.68-126.21A108.18,108.18,0,0,1,369,196c0,24.6-19.26,68.24-55.69,126.21C291.47,357,269.4,387.35,260.81,399Z"/><path class="cls-2" d="M260.81,92.56A103.47,103.47,0,0,0,157.33,196c0,16.53,9.53,51.4,54.93,123.65C231.32,350,250.58,377,260.81,391c10.23-14,29.48-41,48.54-71.34,45.4-72.25,54.93-107.12,54.93-123.65A103.47,103.47,0,0,0,260.81,92.56m0-9.41A112.88,112.88,0,0,1,373.69,196c0,62.35-112.88,210.78-112.88,210.78S147.92,258.38,147.92,196A112.88,112.88,0,0,1,260.81,83.15Z"/></g><g id="Group_125" data-name="Group 125"><path id="Path_5" data-name="Path 5" class="cls-2" d="M303.28,169.87,280.52,146.8c-12.13,4.11-54.63,6.27-44.93,39.51,0,.1.06.19.06.3h12.87a2.81,2.81,0,0,1,.3-.81,15.6,15.6,0,0,1,12.72-7.88,16.18,16.18,0,0,1,14.29,7.58,2.58,2.58,0,0,1-.2,3.23l-2.53,2.52-16.93,16.94a6.76,6.76,0,0,0-1.32,8.08,6.58,6.58,0,0,0,9.09,2,7.66,7.66,0,0,0,1-.74l15.54-15.81,6.36-6.46Z"/><path id="Path_6" data-name="Path 6" class="cls-2" d="M311.52,169.88c1.7,0,1.88-1.18,7.46-6.46a2.51,2.51,0,0,0,0-3.54l0,0c-28.9-28.5-27.8-28.76-29.82-28.76a2.5,2.5,0,0,0-1.77.76c-4.95,5.27-6.26,5.49-6.26,7.32,0,1.48,1.09,2,1.71,2.82.5.29,26.34,26.67,26.86,27.16a3.21,3.21,0,0,0,1.82.75Z"/><path id="Path_7" data-name="Path 7" class="cls-2" d="M252.86,205.36s14.38-14.56,14.33-14.6H218.44a2.36,2.36,0,0,0-2.39,2.33v50.18a2.36,2.36,0,0,0,2.34,2.39H280.6a2.39,2.39,0,0,0,2.39-2.39V205.55l-15.13,15.37a10.77,10.77,0,0,1-16.5-13.73,13.55,13.55,0,0,1,1.5-1.79Zm-1.5,1.79a12.54,12.54,0,0,1,1.46-1.79A13.12,13.12,0,0,0,251.36,207.15Z"/></g></g></svg>