<svg id="Bold" xmlns="http://www.w3.org/2000/svg" viewBox="0 0 512 512"><defs><style>.cls-1{fill:#db1a1a;}.cls-2{fill:#fff;}</style></defs><g id="Group_127" data-name="Group 127"><g id="Path_36" data-name="Path 36"><path class="cls-1" d="M248.55,399c-8.59-11.6-30.66-42-52.49-76.71-36.43-58-55.69-101.61-55.69-126.21a108.18,108.18,0,1,1,216.36,0c0,24.6-19.26,68.24-55.68,126.21C279.21,357,257.14,387.35,248.55,399Z"/><path class="cls-2" d="M248.55,92.56A103.47,103.47,0,0,0,145.07,196c0,16.53,9.53,51.4,54.93,123.65C219.07,350,238.32,377,248.55,391c10.23-14,29.49-41,48.55-71.34C342.5,247.43,352,212.56,352,196A103.47,103.47,0,0,0,248.55,92.56m0-9.41A112.88,112.88,0,0,1,361.43,196c0,62.35-112.88,210.78-112.88,210.78S135.67,258.38,135.67,196A112.88,112.88,0,0,1,248.55,83.15Z"/></g><g id="Group_125" data-name="Group 125"><path id="Path_5" data-name="Path 5" class="cls-2" d="M291,169.87,268.26,146.8c-12.12,4.11-54.62,6.27-44.92,39.51,0,.1,0,.19,0,.3h12.87a2.81,2.81,0,0,1,.3-.81,15.61,15.61,0,0,1,12.72-7.88,16.16,16.16,0,0,1,14.29,7.58,2.58,2.58,0,0,1-.2,3.23l-2.53,2.52-16.93,16.94a6.78,6.78,0,0,0-1.32,8.08,6.59,6.59,0,0,0,9.1,2,6.9,6.9,0,0,0,.95-.74l15.55-15.81,6.36-6.46Z"/><path id="Path_6" data-name="Path 6" class="cls-2" d="M299.26,169.88c1.7,0,1.88-1.18,7.47-6.46a2.51,2.51,0,0,0,0-3.54l0,0c-28.91-28.5-27.81-28.76-29.83-28.76a2.52,2.52,0,0,0-1.77.76c-4.95,5.27-6.25,5.49-6.25,7.32,0,1.48,1.09,2,1.71,2.82.5.29,26.34,26.67,26.86,27.16a3.18,3.18,0,0,0,1.81.75Z"/><path id="Path_7" data-name="Path 7" class="cls-2" d="M240.61,205.36s14.37-14.56,14.33-14.6H206.19a2.35,2.35,0,0,0-2.39,2.33v50.18a2.35,2.35,0,0,0,2.33,2.39h62.22a2.4,2.4,0,0,0,2.39-2.39V205.55L255.6,220.92a10.89,10.89,0,0,1-7.73,3.2,10.78,10.78,0,0,1-8.77-16.93,13.62,13.62,0,0,1,1.51-1.79Zm-1.51,1.79a12.54,12.54,0,0,1,1.46-1.79A13.12,13.12,0,0,0,239.1,207.15Z"/></g></g></svg>