<svg id="Bold" xmlns="http://www.w3.org/2000/svg" viewBox="0 0 512 512"><defs><style>.cls-1{fill:#fff;}</style></defs><g id="Path_36" data-name="Path 36"><path d="M260.81,399c-8.6-11.6-30.67-42-52.5-76.71-36.43-58-55.68-101.61-55.68-126.21A108.18,108.18,0,0,1,369,196c0,24.6-19.26,68.24-55.69,126.21C291.47,357,269.4,387.35,260.81,399Z"/><path class="cls-1" d="M260.81,92.56A103.47,103.47,0,0,0,157.33,196c0,16.53,9.53,51.4,54.93,123.65C231.32,350,250.58,377,260.81,391c10.23-14,29.48-41,48.54-71.34,45.4-72.25,54.93-107.12,54.93-123.65A103.47,103.47,0,0,0,260.81,92.56m0-9.41A112.88,112.88,0,0,1,373.69,196c0,62.35-112.88,210.78-112.88,210.78S147.92,258.38,147.92,196A112.88,112.88,0,0,1,260.81,83.15Z"/></g><path class="cls-1" d="M240.67,229.74v21.87A3.54,3.54,0,0,0,243.1,255a3.53,3.53,0,0,0,4-1.26l12.79-17.42Z"/><path class="cls-1" d="M311.11,147.32a3.52,3.52,0,0,0-3.68-.25L201.3,202.49a3.54,3.54,0,0,0,.49,6.48l29.5,10.09,62.83-53.73-48.61,58.58L295,240.81a3.68,3.68,0,0,0,1.14.19,3.56,3.56,0,0,0,1.84-.52,3.5,3.5,0,0,0,1.66-2.5l13-87.25A3.53,3.53,0,0,0,311.11,147.32Z"/></svg>