
            <?xml version="1.0" encoding="UTF-8" standalone="no"?>
            <svg
               viewBox="-10 -15 93 98.57"
            >
              <path
                 fill='#E2E419'
                 d="M 36.5,0 A 36.5,36.5 0 0 1 73,36.5 C 73,56.66 36.5,98.57 36.5,98.57 36.5,98.57 0,56.66 0,36.5 A 36.5,36.5 0 0 1 36.5,0 Z" />
               <g transform = "scale(0.2 0.2)
                   translate(50 45)
   "  fill='white'>
               <path id="Icon_map-laundry-2" data-name="Icon map-laundry-2" d="M53.33,76.49V204.13c0,5.56,4.52,12.34,10.44,12.34H189.42a13.29,13.29,0,0,0,11.44-12.34V76.49Zm73.61,101.3A38.86,38.86,0,1,1,167.1,139,39.49,39.49,0,0,1,127,177.79ZM189.42,38.67H63.77a9.76,9.76,0,0,0-10.44,9h0V68.9H200.86V48.07A10.71,10.71,0,0,0,189.42,38.67ZM102.54,61.26H60.88V46.12h41.66Zm72.29-1A8.44,8.44,0,0,1,166.25,52h0a8.58,8.58,0,1,1,8.85,8.31h-.31Z"/> 
               </g>
               
 
            </svg>

            