<?xml version="1.0" encoding="UTF-8" standalone="no"?>
<svg
 
   viewBox="0 -16 73 115"
   
>

  <g
     id="Layer_1"
     data-name="Layer 1"
     transform="translate(-29.5,-23.71)">
    <path
       id="Icon_awesome-tools"
       data-name="Icon awesome-tools"
       fill="#ffffff"
       class="cls-1"
       d="m 85.45,69.73 -9.58,-9.58 a 6.07,6.07 0 0 0 -7,-1.13 l -8.7,-8.72 v -5.08 l -10.46,-7.85 -5.24,5.23 7.85,10.47 h 5.08 l 8.72,8.72 a 6.07,6.07 0 0 0 1.13,7 l 9.58,9.58 a 3,3 0 0 0 4.3,0 v 0 L 85.45,74 a 3.07,3.07 0 0 0 0,-4.27 z m -13.85,-14 a 8.64,8.64 0 0 1 6.12,2.54 l 1.58,1.58 A 11.46,11.46 0 0 0 82.88,57.44 11.74,11.74 0 0 0 86,46.3 1,1 0 0 0 84.81,45.59 0.89,0.89 0 0 0 84.36,45.85 L 78.28,51.93 72.7,51 71.78,45.45 77.86,39.37 a 1,1 0 0 0 0,-1.4 1,1 0 0 0 -0.46,-0.26 11.8,11.8 0 0 0 -11.17,3.1 11.62,11.62 0 0 0 -3.37,8.47 L 69.58,56 A 8.58,8.58 0 0 1 71.6,55.77 Z M 63.1,62.43 58.46,57.8 46,70.31 a 5.2325902,5.2325902 0 0 0 7.4,7.4 L 63.51,67.6 A 8.73,8.73 0 0 1 63.1,62.47 Z M 49.71,76 a 2,2 0 1 1 1.95,-2 v 0 a 2,2 0 0 1 -1.95,2 z" />
    <g
       id="Ellipse_69"
       data-name="Ellipse 69">
      <path
         class="cls-2"
         fill="#a44098"
         d="m 66,23.71 a 36.5,36.5 0 0 1 36.5,36.5 c 0,20.16 -36.5,62.08 -36.5,62.08 0,0 -36.5,-41.92 -36.5,-62.08 A 36.5,36.5 0 0 1 66,23.71 Z"
         id="path688" />
    </g>
    <g
       id="Ellipse_69-2"
       data-name="Ellipse 69">
      <path
         class="cls-3"
         fill="transparent"
         stroke="#ffffff"
         stroke-miterlimit="10"
         stroke-width="2.09px"
         d="M 66,28.21 A 32,32 0 0 1 98.06,60.1 C 98.06,77.71 66,114.33 66,114.33 66,114.33 33.94,77.71 33.94,60.1 A 32,32 0 0 1 66,28.21 Z"
         id="path691" />
    </g>
  </g>
  <g
     fill="#ffffff"
     transform="matrix(0.2,0,0,0.2,10.5,10.29)"
     id="g696">
    <path
       id="Icon_map-laundry-2"
       data-name="Icon map-laundry-2"
       d="m 53.33,76.49 v 127.64 c 0,5.56 4.52,12.34 10.44,12.34 h 125.65 a 13.29,13.29 0 0 0 11.44,-12.34 V 76.49 Z m 73.61,101.3 A 38.86,38.86 0 1 1 167.1,139 39.49,39.49 0 0 1 127,177.79 Z M 189.42,38.67 H 63.77 a 9.76,9.76 0 0 0 -10.44,9 v 0 21.23 H 200.86 V 48.07 a 10.71,10.71 0 0 0 -11.44,-9.4 z M 102.54,61.26 H 60.88 V 46.12 h 41.66 z m 72.29,-1 A 8.44,8.44 0 0 1 166.25,52 v 0 a 8.58,8.58 0 1 1 8.85,8.31 h -0.31 z" />
  </g>
</svg>
