<?xml version="1.0" encoding="UTF-8" standalone="no"?>
<svg
   viewBox="0 0 91.014977 115.75295">
  <g
     transform="translate(-27.87,-5.8170448)"
     data-name="Layer 1"
     id="Layer_1">
    <path
       d="m 83.82,69 -9.58,-9.57 a 6.07,6.07 0 0 0 -7,-1.14 l -8.72,-8.71 v -5.05 l -10.44,-7.85 -5.24,5.23 7.85,10.47 h 5.08 l 8.72,8.71 a 6.09,6.09 0 0 0 1.13,7 l 9.58,9.57 a 3,3 0 0 0 4.3,0 v 0 l 4.31,-4.31 A 3.07,3.07 0 0 0 83.82,69 Z M 70,55.08 a 8.58,8.58 0 0 1 6.12,2.53 l 1.58,1.59 a 11.49,11.49 0 0 0 3.58,-2.42 11.72,11.72 0 0 0 3.1,-11.17 1,1 0 0 0 -1.19,-0.71 0.94,0.94 0 0 0 -0.45,0.26 l -6.08,6.08 -5.56,-0.92 -0.92,-5.56 6.08,-6.08 a 1,1 0 0 0 0,-1.39 0.88,0.88 0 0 0 -0.46,-0.26 11.77,11.77 0 0 0 -11.17,3.1 11.59,11.59 0 0 0 -3.37,8.47 L 68,55.31 a 9.13,9.13 0 0 1 2,-0.23 z m -8.5,6.7 -4.64,-4.64 -12.49,12.48 a 5.2325902,5.2325902 0 0 0 7.4,7.4 L 61.88,66.91 A 8.74,8.74 0 0 1 61.47,61.78 Z M 48.08,75.27 a 2,2 0 1 1 2,-2 v 0 a 2,2 0 0 1 -2,2 z"
       class="cls-1"
       fill="#ffffff"
       data-name="Icon awesome-tools"
       id="Icon_awesome-tools" />
    <g
       data-name="Ellipse 69"
       id="Ellipse_69">
      <path
         id="path602"
         d="m 64.37,23 a 36.5,36.5 0 0 1 36.5,36.5 c 0,20.16 -36.5,62.07 -36.5,62.07 0,0 -36.5,-41.91 -36.5,-62.07 A 36.5,36.5 0 0 1 64.37,23 Z"
         fill="#a44098"
         class="cls-2" />
    </g>
    <g
       data-name="Group 174"
       id="Group_174">
      <ellipse
         ry="12.02"
         rx="8.4899998"
         cy="28.950001"
         cx="99.25"
         stroke-width="2.5px"
         stroke-miterlimit="10"
         stroke="#ffffff"
         class="cls-3"
         data-name="Ellipse 27"
         id="Ellipse_27" />
      <path
         d="M 117.22,36.2 A 3.2,3.2 0 0 1 114.45,41 H 82.64 a 3.18,3.18 0 0 1 -3.19,-3.18 3.15,3.15 0 0 1 0.42,-1.59 L 95.78,8.61 a 3.2,3.2 0 0 1 5.52,0 z"
         fill="#e2c951"
         stroke-width="2.5px"
         stroke-miterlimit="10"
         stroke="#ffffff"
         class="cls-4"
         data-name="Icon awesome-exclamation-triangle"
         id="Icon_awesome-exclamation-triangle" />
    </g>
    <path
       id="path608"
       d="m 98.54,30.93 a 3,3 0 1 0 3,3 3,3 0 0 0 -3,-3 z"
       fill="#ffffff"
       class="cls-1" />
    <path
       id="path610"
       d="m 95.65,20 0.49,9 a 0.79,0.79 0 0 0 0.8,0.75 h 3.22 A 0.79,0.79 0 0 0 101,29 l 0.49,-9 a 0.79,0.79 0 0 0 -0.75,-0.84 h -4.3 a 0.79,0.79 0 0 0 -0.79,0.8 v 0 z"
       fill="#ffffff"
       class="cls-1" />
  </g>
  <g
     id="g614"
     transform="matrix(0.2,0,0,0.2,12.13,28.182955)"
     fill="#ffffff">
    <path
       d="m 53.33,76.49 v 127.64 c 0,5.56 4.52,12.34 10.44,12.34 h 125.65 a 13.29,13.29 0 0 0 11.44,-12.34 V 76.49 Z m 73.61,101.3 A 38.86,38.86 0 1 1 167.1,139 39.49,39.49 0 0 1 127,177.79 Z M 189.42,38.67 H 63.77 a 9.76,9.76 0 0 0 -10.44,9 v 0 21.23 H 200.86 V 48.07 a 10.71,10.71 0 0 0 -11.44,-9.4 z M 102.54,61.26 H 60.88 V 46.12 h 41.66 z m 72.29,-1 A 8.44,8.44 0 0 1 166.25,52 v 0 a 8.58,8.58 0 1 1 8.85,8.31 h -0.31 z"
       data-name="Icon map-laundry-2"
       id="Icon_map-laundry-2" />
  </g>
</svg>
