<svg id="Layer_1" data-name="Layer 1" xmlns="http://www.w3.org/2000/svg" viewBox="0 0 250 250"><path id="Icon_material-people-2" data-name="Icon material-people-2" d="M162.78,115.56a28.35,28.35,0,1,0-28.34-28.34h0a28.25,28.25,0,0,0,28.13,28.34Zm-75.56,0A28.35,28.35,0,1,0,58.87,87.22h0A28.26,28.26,0,0,0,87,115.56Zm0,18.88c-22,0-66.13,11.09-66.13,33.06v23.63H153.35V167.54c0-22-44.12-33.06-66.13-33.06Zm75.56,0c-2.72,0-5.86.21-9.13.51,10.92,7.9,18.57,18.57,18.57,32.55v23.63h56.69V167.54c0-22-44.11-33.06-66.13-33.06Z"/></svg>