<svg id="Layer_1" data-name="Layer 1" xmlns="http://www.w3.org/2000/svg" viewBox="0 0 250 250"><g id="Icon_map-grocery-or-supermarket-2" data-name="Icon map-grocery-or-supermarket-2"><path id="Path_43-2" data-name="Path 43-2" d="M225.5,194.93a17.45,17.45,0,1,1-17.45-17.45h0A17.45,17.45,0,0,1,225.5,194.93Z"/><path id="Path_44-2" data-name="Path 44-2" d="M99,194.93a17.45,17.45,0,1,1-17.45-17.45h0A17.41,17.41,0,0,1,99,194.84Z"/><path id="Path_45-2" data-name="Path 45-2" d="M221.13,155.7H84.94l2.92-4.55a8.71,8.71,0,0,0,1-6.79L86,133.47l126.39-6.61a9.11,9.11,0,0,0,8.71-9.11v-58A8.76,8.76,0,0,0,212.42,51H64.66L63,44.48a8.73,8.73,0,0,0-8.25-6.37H25.12a8.75,8.75,0,0,0,0,17.45H47.9l23.28,89.57L62.07,160a8.66,8.66,0,0,0,2.77,11.93l.1.06a8.35,8.35,0,0,0,4.55,1.32H221.31a8.75,8.75,0,0,0,0-17.45Z"/></g></svg>