<svg id="Layer_1" data-name="Layer 1" xmlns="http://www.w3.org/2000/svg" viewBox="0 0 250 250"><path id="Icon_map-laundry-2" data-name="Icon map-laundry-2" d="M53.33,76.49V204.13c0,5.56,4.52,12.34,10.44,12.34H189.42a13.29,13.29,0,0,0,11.44-12.34V76.49Zm73.61,101.3A38.86,38.86,0,1,1,167.1,139,39.49,39.49,0,0,1,127,177.79ZM189.42,38.67H63.77a9.76,9.76,0,0,0-10.44,9h0V68.9H200.86V48.07A10.71,10.71,0,0,0,189.42,38.67ZM102.54,61.26H60.88V46.12h41.66Zm72.29-1A8.44,8.44,0,0,1,166.25,52h0a8.58,8.58,0,1,1,8.85,8.31h-.31Z"/></svg>