<svg id="Layer_1" data-name="Layer 1" xmlns="http://www.w3.org/2000/svg" viewBox="0 0 1031.48 517.79"><defs><style>.cls-1{fill:#fff;}.cls-2{fill:#8d1840;}.cls-3{fill:#e2c951;}</style></defs><g id="Ellipse_69" data-name="Ellipse 69"><path d="M72.6,279.93a36.5,36.5,0,0,1,36.5,36.5h0c0,20.16-36.5,62.07-36.5,62.07s-36.5-41.91-36.5-62.07a36.5,36.5,0,0,1,36.5-36.5Z"/></g><g id="Ellipse_69-2" data-name="Ellipse 69-2"><path d="M72.6,54a36.5,36.5,0,0,1,36.5,36.5c0,20.16-36.5,62.07-36.5,62.07S36.1,110.66,36.1,90.5A36.5,36.5,0,0,1,72.6,54Z"/></g><g id="Ellipse_69-3" data-name="Ellipse 69-3"><path d="M181.77,279.93a36.5,36.5,0,0,1,36.5,36.5h0c0,20.16-36.5,62.07-36.5,62.07s-36.5-41.91-36.5-62.07a36.5,36.5,0,0,1,36.5-36.5Z"/></g><g id="Ellipse_69-4" data-name="Ellipse 69-4"><path d="M290.94,279.93a36.5,36.5,0,0,1,36.5,36.5h0c0,20.16-36.5,62.07-36.5,62.07s-36.5-41.91-36.5-62.07a36.5,36.5,0,0,1,36.5-36.5Z"/></g><g id="Ellipse_69-5" data-name="Ellipse 69-5"><path d="M400.11,279.93a36.5,36.5,0,0,1,36.5,36.5h0c0,20.16-36.5,62.07-36.5,62.07s-36.5-41.91-36.5-62.07a36.5,36.5,0,0,1,36.5-36.5Z"/></g><g id="Ellipse_69-6" data-name="Ellipse 69-6"><path d="M509.29,279.93a36.5,36.5,0,0,1,36.5,36.5h0c0,20.16-36.5,62.07-36.5,62.07s-36.5-41.91-36.5-62.07A36.5,36.5,0,0,1,509.29,279.93Z"/></g><g id="Ellipse_69-8" data-name="Ellipse 69-8"><path d="M727.63,279.93a36.5,36.5,0,0,1,36.5,36.5h0c0,20.16-36.5,62.07-36.5,62.07s-36.5-41.91-36.5-62.07a36.5,36.5,0,0,1,36.5-36.5Z"/></g><g id="Ellipse_69-9" data-name="Ellipse 69-9"><path d="M836.8,279.93a36.5,36.5,0,0,1,36.5,36.5h0c0,20.16-36.5,62.07-36.5,62.07s-36.5-41.91-36.5-62.07a36.5,36.5,0,0,1,36.5-36.5Z"/></g><g id="Ellipse_69-10" data-name="Ellipse 69-10"><path d="M946,279.93a36.5,36.5,0,0,1,36.5,36.5h0c0,20.16-36.5,62.07-36.5,62.07s-36.5-41.91-36.5-62.07a36.5,36.5,0,0,1,36.5-36.5Z"/></g><path id="Icon_map-health" data-name="Icon map-health" class="cls-1" d="M201.87,309.74a.85.85,0,0,0-.84-.84H190.14a.86.86,0,0,1-.84-.84V297.18a.83.83,0,0,0-.82-.84H175.07a.85.85,0,0,0-.84.84v10.88a.84.84,0,0,1-.83.84H162.51a.85.85,0,0,0-.84.84v13.39a.86.86,0,0,0,.84.84H173.4a.84.84,0,0,1,.83.84v10.88a.86.86,0,0,0,.84.84h13.39a.83.83,0,0,0,.84-.82v-10.9a.86.86,0,0,1,.84-.84H201a.86.86,0,0,0,.84-.84Z"/><path id="Icon_map-laundry" data-name="Icon map-laundry" class="cls-1" d="M383.79,305.14v28.25c0,1.23,1,2.72,2.31,2.72h27.81a2.94,2.94,0,0,0,2.53-2.72V305.14Zm16.29,22.42A8.6,8.6,0,1,1,409,319a8.74,8.74,0,0,1-8.92,8.56Zm13.83-30.8H386.1a2.16,2.16,0,0,0-2.31,2h0v4.68h32.65v-4.6a2.38,2.38,0,0,0-2.53-2.08Zm-19.23,5h-9.22v-3.35h9.22Zm16-.24a1.87,1.87,0,0,1-1.9-1.83h0a1.9,1.9,0,0,1,3.79,0,1.87,1.87,0,0,1-1.9,1.83h0Z"/><g id="Icon_map-grocery-or-supermarket" data-name="Icon map-grocery-or-supermarket"><path id="Path_43" data-name="Path 43" class="cls-1" d="M309.48,333.63a3.83,3.83,0,1,1-3.83-3.83h0A3.85,3.85,0,0,1,309.48,333.63Z"/><path id="Path_44" data-name="Path 44" class="cls-1" d="M281.72,333.63a3.83,3.83,0,1,1-3.83-3.83h0A3.82,3.82,0,0,1,281.72,333.63Z"/><path id="Path_45" data-name="Path 45" class="cls-1" d="M308.52,325H278.63l.64-1a2,2,0,0,0,.22-1.49l-.62-2.4,27.74-1.44a2,2,0,0,0,1.91-2V304a1.92,1.92,0,0,0-1.91-1.92H274.18l-.37-1.43a1.92,1.92,0,0,0-1.86-1.44h-6.5a1.92,1.92,0,0,0,0,3.83h5l5.11,19.66-2,3.26a1.91,1.91,0,0,0,.61,2.63,1.89,1.89,0,0,0,1,.29H308.5a1.91,1.91,0,1,0,0-3.82Z"/></g><path id="Icon_awesome-tools" data-name="Icon awesome-tools" class="cls-1" d="M528.73,326l-9.57-9.58a6.09,6.09,0,0,0-7-1.13l-8.71-8.72v-5.08L493,293.59l-5.23,5.23,7.85,10.47h5.08l8.7,8.71a6.09,6.09,0,0,0,1.14,7l9.57,9.58a3,3,0,0,0,4.24.06l.06-.06h0l4.31-4.31a3,3,0,0,0,0-4.24Zm-13.85-14a8.58,8.58,0,0,1,6.12,2.54l1.59,1.58a11.58,11.58,0,0,0,3.58-2.41,11.77,11.77,0,0,0,3.1-11.18,1,1,0,0,0-1.19-.71,1,1,0,0,0-.46.26l-6.08,6.08-5.55-.92-.92-5.55,6.08-6.09a1,1,0,0,0,0-1.39,1,1,0,0,0-.46-.26,11.8,11.8,0,0,0-11.17,3.1,11.59,11.59,0,0,0-3.37,8.47l6.71,6.72A8.58,8.58,0,0,1,514.88,312Zm-8.5,6.7-4.63-4.63-12.46,12.47a5.23,5.23,0,0,0,7.4,7.4l10.1-10.11A8.9,8.9,0,0,1,506.38,318.7ZM493,332.19a2,2,0,1,1,2-2h0A2,2,0,0,1,493,332.19Z"/><path id="Icon_material-people" data-name="Icon material-people" class="cls-1" d="M736.52,310.14a6.67,6.67,0,1,0-6.67-6.67h0a6.64,6.64,0,0,0,6.62,6.66h0Zm-17.78,0a6.67,6.67,0,1,0-6.67-6.67h0a6.65,6.65,0,0,0,6.61,6.66Zm0,4.45c-5.18,0-15.56,2.61-15.56,7.78v5.56H734.3v-5.56C734.3,317.19,723.92,314.59,718.74,314.59Zm17.78,0a15,15,0,0,0-2.15.11c2.57,1.87,4.37,4.38,4.37,7.67v5.56h13.34v-5.56C752.08,317.19,741.7,314.59,736.52,314.59Z"/><g id="Icon_ionic-ios-school" data-name="Icon ionic-ios-school"><path id="Path_46" data-name="Path 46" class="cls-1" d="M819.31,316.47v9.79a.86.86,0,0,0,.42.74l13.94,8a.84.84,0,0,0,1.15-.29v0a.92.92,0,0,0,.11-.43v-9.91a.87.87,0,0,0-.42-.74l-13.94-7.91a.87.87,0,0,0-1.17.35A.77.77,0,0,0,819.31,316.47Z"/><path id="Path_47" data-name="Path 47" class="cls-1" d="M838.74,335l14-8a.84.84,0,0,0,.43-.74v-9.89a.86.86,0,0,0-.85-.86.82.82,0,0,0-.43.12l-13.94,8a.84.84,0,0,0-.42.73v9.91a.84.84,0,0,0,.83.84A1,1,0,0,0,838.74,335Z"/><path id="Path_48" data-name="Path 48" class="cls-1" d="M835.37,294.8,813,307.87a.86.86,0,0,0-.31,1.16.77.77,0,0,0,.31.31l22.39,12.44a1.68,1.68,0,0,0,1.68,0l19.87-11.37c.56-.33.74.08.74.74v16.2c0,.72.41,1.06,1.16,1.06h0a1,1,0,0,0,1-1v-18.2a.86.86,0,0,0-.42-.74L837,294.8A1.67,1.67,0,0,0,835.37,294.8Z"/></g><path id="Icon_awesome-star-of-life" data-name="Icon awesome-star-of-life" class="cls-1" d="M964.53,322.27l-11.11-6.41,11.11-6.42a1.3,1.3,0,0,0,.48-1.77h0l-2.62-4.54a1.31,1.31,0,0,0-1.78-.48l-11.12,6.42V296.23a1.31,1.31,0,0,0-1.31-1.31H943a1.31,1.31,0,0,0-1.31,1.31h0v12.83l-11.12-6.41a1.31,1.31,0,0,0-1.79.48h0l-2.61,4.53a1.3,1.3,0,0,0,.47,1.78h0l11.12,6.42-11.12,6.41a1.32,1.32,0,0,0-.48,1.79h0l2.61,4.53a1.32,1.32,0,0,0,1.79.48l11.12-6.41v12.82a1.31,1.31,0,0,0,1.3,1.31h5.24a1.31,1.31,0,0,0,1.31-1.31V322.65l11.11,6.42a1.32,1.32,0,0,0,1.79-.48h0l2.62-4.53a1.31,1.31,0,0,0-.48-1.79h0Z"/><path id="Icon_material-attach-money" data-name="Icon material-attach-money" class="cls-1" d="M73.41,312c-5.06-1.32-6.69-2.68-6.69-4.8,0-2.44,2.25-4.13,6-4.13,4,0,5.45,1.89,5.59,4.68h4.93a8.88,8.88,0,0,0-7.17-8.5v-4.89h-6.7v4.82c-4.33.94-7.81,3.75-7.81,8.06,0,5.16,4.26,7.73,10.49,9.22,5.58,1.34,6.7,3.3,6.7,5.38,0,1.54-1.09,4-6,4-4.6,0-6.41-2.06-6.65-4.69H61.18c.27,4.89,3.93,7.63,8.21,8.55v4.85h6.7v-4.8c4.35-.83,7.81-3.35,7.81-7.93C83.91,315.46,78.48,313.29,73.41,312Z"/><path id="Icon_map-health-2" data-name="Icon map-health-2" d="M201.87,201.53a.86.86,0,0,0-.84-.84H190.14a.86.86,0,0,1-.84-.84V189a.85.85,0,0,0-.84-.84H175.07a.86.86,0,0,0-.84.84v10.88a.83.83,0,0,1-.82.84h-10.9a.86.86,0,0,0-.84.84V215a.84.84,0,0,0,.84.83H173.4a.84.84,0,0,1,.83.84v10.89a.86.86,0,0,0,.84.84h13.39a.86.86,0,0,0,.84-.84V216.6a.86.86,0,0,1,.84-.84H201a.84.84,0,0,0,.84-.83Z"/><path id="Icon_map-laundry-2" data-name="Icon map-laundry-2" d="M383.79,196.93v28.25c0,1.23,1,2.73,2.31,2.73h27.81a2.93,2.93,0,0,0,2.53-2.73V196.93Zm16.29,22.42a8.6,8.6,0,1,1,8.89-8.59,8.74,8.74,0,0,1-8.89,8.59Zm13.83-30.79H386.1a2.16,2.16,0,0,0-2.31,2h0v4.69h32.65v-4.61A2.37,2.37,0,0,0,413.91,188.56Zm-19.23,5h-9.22v-3.35h9.22Zm16-.23a1.87,1.87,0,0,1-1.9-1.83h0a1.9,1.9,0,1,1,2,1.84h-.06Z"/><g id="Icon_map-grocery-or-supermarket-2" data-name="Icon map-grocery-or-supermarket-2"><path id="Path_43-2" data-name="Path 43-2" d="M309.48,225.42a3.83,3.83,0,1,1-3.83-3.83h0A3.82,3.82,0,0,1,309.48,225.42Z"/><path id="Path_44-2" data-name="Path 44-2" d="M281.72,225.42a3.83,3.83,0,1,1-3.83-3.83h0a3.82,3.82,0,0,1,3.83,3.81Z"/><path id="Path_45-2" data-name="Path 45-2" d="M308.52,216.81H278.63l.64-1a1.86,1.86,0,0,0,.22-1.49l-.62-2.39,27.74-1.45a2,2,0,0,0,1.91-2V195.75a1.93,1.93,0,0,0-1.91-1.91H274.18l-.37-1.44A1.93,1.93,0,0,0,272,191h-6.5a1.92,1.92,0,0,0,0,3.83h5l5.11,19.66-2,3.26a1.91,1.91,0,0,0,.61,2.62h0a1.88,1.88,0,0,0,1,.29h33.32a1.92,1.92,0,0,0,0-3.83Z"/></g><path id="Icon_awesome-tools-2" data-name="Icon awesome-tools-2" d="M528.73,217.74l-9.57-9.57a6.07,6.07,0,0,0-7-1.14l-8.71-8.72v-5.07L493,185.39l-5.23,5.23,7.85,10.46h5.08l8.71,8.72a6.09,6.09,0,0,0,1.14,7l9.57,9.58a3,3,0,0,0,4.24.06l.06-.06h0l4.31-4.31a3,3,0,0,0,.09-4.24Zm-13.85-14a8.57,8.57,0,0,1,6.12,2.53l1.59,1.58a11.58,11.58,0,0,0,3.58-2.41,11.77,11.77,0,0,0,3.1-11.18,1,1,0,0,0-1.19-.71,1.17,1.17,0,0,0-.46.26L521.54,200,516,199l-.92-5.55,6.08-6.08a1,1,0,0,0,0-1.39,1,1,0,0,0-.46-.26,11.77,11.77,0,0,0-11.17,3.1,11.51,11.51,0,0,0-3.37,8.47l6.71,6.71a9.66,9.66,0,0,1,2-.21Zm-8.5,6.7-4.63-4.64-12.46,12.47a5.23,5.23,0,0,0,7.4,7.4h0l10.1-10.1a8.9,8.9,0,0,1-.41-5.13ZM493,224a2,2,0,1,1-.8-3.92,2.15,2.15,0,0,1,.8,0,2,2,0,0,1,2,1.95h0A2,2,0,0,1,493,224Z"/><path id="Icon_material-people-2" data-name="Icon material-people-2" d="M736.52,201.94a6.67,6.67,0,1,0-6.67-6.67h0a6.65,6.65,0,0,0,6.62,6.67Zm-17.78,0a6.67,6.67,0,1,0-6.67-6.67h0a6.66,6.66,0,0,0,6.61,6.67Zm0,4.44c-5.18,0-15.56,2.61-15.56,7.78v5.56H734.3v-5.55c0-5.18-10.38-7.78-15.56-7.78Zm17.78,0c-.64,0-1.38.05-2.15.12,2.57,1.86,4.37,4.37,4.37,7.66v5.56h13.34v-5.55c0-5.18-10.38-7.78-15.56-7.78Z"/><g id="Icon_ionic-ios-school-2" data-name="Icon ionic-ios-school-2"><path id="Path_46-2" data-name="Path 46-2" d="M819.31,208.27v9.79a.87.87,0,0,0,.42.74l13.94,8a.86.86,0,0,0,1.16-.31.92.92,0,0,0,.11-.43v-9.91a.86.86,0,0,0-.42-.74l-13.94-7.91a.87.87,0,0,0-1.17.34h0A.77.77,0,0,0,819.31,208.27Z"/><path id="Path_47-2" data-name="Path 47-2" d="M838.74,226.81l14-8a.84.84,0,0,0,.43-.74v-9.89a.85.85,0,0,0-.85-.85.92.92,0,0,0-.43.11l-13.94,8a.86.86,0,0,0-.42.74v9.9a.79.79,0,0,0,1.21.73Z"/><path id="Path_48-2" data-name="Path 48-2" d="M835.37,186.59,813,199.67a.84.84,0,0,0-.31,1.15h0a.86.86,0,0,0,.31.32l22.39,12.44a1.73,1.73,0,0,0,1.68,0l19.87-11.38c.56-.32.74.09.74.74v16.2c0,.72.41,1.06,1.16,1.06h0a1,1,0,0,0,1-1V201a.87.87,0,0,0-.42-.74L837,186.59A1.73,1.73,0,0,0,835.37,186.59Z"/></g><path id="Icon_awesome-star-of-life-2" data-name="Icon awesome-star-of-life-2" d="M964.53,214.06l-11.11-6.41,11.11-6.41a1.31,1.31,0,0,0,.48-1.79h0l-2.62-4.53a1.3,1.3,0,0,0-1.77-.48h0l-11.12,6.41V188a1.31,1.31,0,0,0-1.31-1.31H943a1.3,1.3,0,0,0-1.31,1.29v0h0v12.82l-11.12-6.41a1.31,1.31,0,0,0-1.79.48h0l-2.61,4.53a1.29,1.29,0,0,0,.46,1.78h0l11.12,6.41L926.64,214a1.32,1.32,0,0,0-.48,1.79h0l2.61,4.53a1.31,1.31,0,0,0,1.79.48h0l11.12-6.41v12.83a1.3,1.3,0,0,0,1.3,1.3h5.24a1.31,1.31,0,0,0,1.31-1.3v-12.8l11.11,6.41a1.31,1.31,0,0,0,1.79-.48h0l2.62-4.53a1.31,1.31,0,0,0-.48-1.79h0Z"/><path id="Icon_material-attach-money-2" data-name="Icon material-attach-money-2" d="M73.41,203.77c-5.06-1.32-6.69-2.68-6.69-4.8,0-2.43,2.25-4.13,6-4.13,4,0,5.45,1.9,5.59,4.69h4.93A8.89,8.89,0,0,0,76.09,191v-4.89h-6.7V191c-4.33.93-7.81,3.75-7.81,8.06,0,5.15,4.26,7.72,10.49,9.21,5.58,1.34,6.7,3.31,6.7,5.38,0,1.55-1.09,4-6,4-4.6,0-6.41-2.05-6.65-4.69H61.18c.27,4.89,3.93,7.64,8.21,8.55v4.86h6.7v-4.81c4.35-.82,7.81-3.35,7.81-7.92C83.91,207.26,78.48,205.09,73.41,203.77Z"/><g id="Ellipse_69-11" data-name="Ellipse 69-11"><path class="cls-2" d="M506.33,56.78a36.5,36.5,0,0,1,36.5,36.5c0,16-23,45.67-32.47,57.26a5.21,5.21,0,0,1-8.07,0c-9.49-11.59-32.46-41.27-32.46-57.26a36.5,36.5,0,0,1,36.5-36.5Z"/></g><g id="Group_174" data-name="Group 174"><ellipse id="Ellipse_27" data-name="Ellipse 27" class="cls-1" cx="540.29" cy="65.63" rx="6" ry="8.5"/><path id="Icon_awesome-exclamation-triangle" data-name="Icon awesome-exclamation-triangle" class="cls-3" d="M553,70.76a2.24,2.24,0,0,1-2,3.37H528.55a2.27,2.27,0,0,1-2.26-2.25,2.32,2.32,0,0,1,.3-1.12l11.25-19.5a2.24,2.24,0,0,1,3.07-.83,2.2,2.2,0,0,1,.83.83Zm-13.2-4a2.16,2.16,0,1,0,2.2,2.12,2.16,2.16,0,0,0-2.2-2.12Zm-2-7.75.34,6.38a.57.57,0,0,0,.57.53H541a.55.55,0,0,0,.56-.53l.35-6.38a.56.56,0,0,0-.53-.59h-3a.57.57,0,0,0-.57.56h0Z"/></g><path id="Icon_awesome-tools-3" data-name="Icon awesome-tools-3" class="cls-1" d="M525.77,102.79l-9.57-9.57a6.07,6.07,0,0,0-7-1.14l-8.71-8.72V78.29L490,70.44l-5.23,5.23,7.85,10.47h5.08l8.71,8.71a6.12,6.12,0,0,0,1.14,7l9.57,9.57a3,3,0,0,0,4.24.06l.06-.06h0l4.31-4.31a3,3,0,0,0,.12-4.24Zm-13.85-14A8.55,8.55,0,0,1,518,91.37L519.63,93a11.69,11.69,0,0,0,6.68-13.6,1,1,0,0,0-1.64-.45l-6.09,6L513,84.07l-.92-5.55,6.08-6.08a1,1,0,0,0,0-1.39,1,1,0,0,0-.46-.26,11.77,11.77,0,0,0-11.17,3.1,11.51,11.51,0,0,0-3.37,8.47l6.71,6.71a9.4,9.4,0,0,1,2.05-.23Zm-8.5,6.7-4.63-4.64-12.46,12.48a5.23,5.23,0,1,0,7.4,7.4l10.1-10.11A8.9,8.9,0,0,1,503.42,95.49ZM490,109a2,2,0,1,1-.8-3.92,2.15,2.15,0,0,1,.8,0,2,2,0,0,1,2,2h0A2,2,0,0,1,490,109Z"/></svg>