<svg id="Layer_1" data-name="Layer 1" xmlns="http://www.w3.org/2000/svg" viewBox="0 0 250 250"><path id="Icon_awesome-tools-2" data-name="Icon awesome-tools-2" d="M214.17,173.89,173.1,133.74a26.49,26.49,0,0,0-30-4.78L105.7,92.38V71.12L60.86,38.19,38.42,60.13,72.1,104H93.9l37.37,36.58a25.12,25.12,0,0,0,4.89,29.36l41.06,40.19a13.09,13.09,0,0,0,18.21.24l.24-.24h0l18.5-18.08a12.38,12.38,0,0,0,.38-17.79Zm-59.43-58.73A37.26,37.26,0,0,1,181,125.77l6.82,6.63a49.75,49.75,0,0,0,15.36-10.11,48.6,48.6,0,0,0,13.3-46.9,4.28,4.28,0,0,0-5.1-3,5,5,0,0,0-2,1.09l-26.08,26-23.77-4.19L155.6,72l26.09-25.51a4.14,4.14,0,0,0,0-5.83,4.3,4.3,0,0,0-2-1.09,51.32,51.32,0,0,0-47.93,13A48,48,0,0,0,117.32,88.1l28.8,28.15a40.23,40.23,0,0,1,8.62-.88Zm-36.47,28.11L98.4,123.8,44.94,176.11a21.6,21.6,0,0,0,0,31,22.82,22.82,0,0,0,31.75,0h0L120,164.78a36.48,36.48,0,0,1-1.76-21.51ZM60.86,200.15a8.58,8.58,0,0,1-10.12-6.56,8.4,8.4,0,0,1,6.7-9.89,8.94,8.94,0,0,1,3.42,0,8.49,8.49,0,0,1,8.58,8.18h0A8.49,8.49,0,0,1,60.86,200.15Z"/></svg>