<svg id="Layer_1" data-name="Layer 1" xmlns="http://www.w3.org/2000/svg" viewBox="0 0 250 250"><g id="Icon_ionic-ios-school-2" data-name="Icon ionic-ios-school-2"><path id="Path_46-2" data-name="Path 46-2" d="M50.31,134.83V177.6a3.81,3.81,0,0,0,1.84,3.24l60.9,34.95a3.77,3.77,0,0,0,5.07-1.36,4.1,4.1,0,0,0,.48-1.88V169.26a3.73,3.73,0,0,0-1.84-3.24l-60.9-34.55a3.76,3.76,0,0,0-5.1,1.5v0A3.34,3.34,0,0,0,50.31,134.83Z"/><path id="Path_47-2" data-name="Path 47-2" d="M135.2,215.83l61.16-35a3.67,3.67,0,0,0,1.88-3.23V134.44a3.72,3.72,0,0,0-3.71-3.72,4.1,4.1,0,0,0-1.88.48l-60.9,35a3.7,3.7,0,0,0-1.84,3.23v43.25a3.71,3.71,0,0,0,3.63,3.71A3.48,3.48,0,0,0,135.2,215.83Z"/><path id="Path_48-2" data-name="Path 48-2" d="M120.48,40.11,22.74,97.26a3.66,3.66,0,0,0-1.36,5v0a3.78,3.78,0,0,0,1.35,1.4L120.56,158a7.55,7.55,0,0,0,7.34,0l86.81-49.72c2.45-1.4,3.24.39,3.24,3.23v70.78c0,3.15,1.79,4.63,5.06,4.63h0a4.36,4.36,0,0,0,4.37-4.37V103.07a3.73,3.73,0,0,0-1.83-3.23L127.68,40.11A7.54,7.54,0,0,0,120.48,40.11Z"/></g></svg>