<svg id="Layer_1" data-name="Layer 1" xmlns="http://www.w3.org/2000/svg" viewBox="0 0 250 250"><path id="Icon_awesome-star-of-life-2" data-name="Icon awesome-star-of-life-2" d="M200.75,151.84l-44.47-25.66,44.47-25.66a5.25,5.25,0,0,0,1.93-7.16h0L192.19,75.22a5.21,5.21,0,0,0-7.11-1.93h0L140.54,99V47.52a5.23,5.23,0,0,0-5.24-5.24H114.56a5.2,5.2,0,0,0-5.24,5.16v.08h0V98.84L64.81,73.18a5.25,5.25,0,0,0-7.17,1.92h0L47.19,93.24A5.21,5.21,0,0,0,49,100.37l.06,0h0l44.52,25.66L49.07,151.72a5.3,5.3,0,0,0-1.92,7.17h0L57.6,177a5.24,5.24,0,0,0,7.16,1.92h0l44.51-25.66v51.36a5.2,5.2,0,0,0,5.2,5.21h21a5.25,5.25,0,0,0,5.24-5.21V153.4l44.48,25.66a5.24,5.24,0,0,0,7.16-1.92h0L202.83,159a5.25,5.25,0,0,0-1.92-7.17h-.16Z"/></svg>