<svg id="Layer_1" data-name="Layer 1" xmlns="http://www.w3.org/2000/svg" viewBox="0 0 250 250"><path id="Icon_map-health-2" data-name="Icon map-health-2" d="M218.88,94A3.92,3.92,0,0,0,215,90.13H164.84A3.92,3.92,0,0,1,161,86.26v-50a3.87,3.87,0,0,0-3.87-3.87H95.41a3.91,3.91,0,0,0-3.87,3.87V86.39a3.82,3.82,0,0,1-3.78,3.87H37.55a3.92,3.92,0,0,0-3.87,3.87v61.74a3.86,3.86,0,0,0,3.87,3.82H87.72a3.87,3.87,0,0,1,3.82,3.87v50.17a3.91,3.91,0,0,0,3.87,3.87H157.1a3.92,3.92,0,0,0,3.87-3.87V163.42a3.92,3.92,0,0,1,3.87-3.87h50a3.87,3.87,0,0,0,3.87-3.82Z"/></svg>