<svg id="Layer_1" data-name="Layer 1" xmlns="http://www.w3.org/2000/svg" viewBox="0 0 250 250"><path id="Icon_material-attach-money-2" data-name="Icon material-attach-money-2" d="M128,117.09c-21.44-5.59-28.34-11.35-28.34-20.34,0-10.29,9.53-17.49,25.41-17.49,16.95,0,23.09,8,23.69,19.87h20.88A37.66,37.66,0,0,0,139.37,63V42.27H111V63C92.64,66.93,77.9,78.88,77.9,97.14c0,21.81,18,32.7,44.44,39,23.64,5.68,28.38,14,28.38,22.8,0,6.56-4.61,16.94-25.41,16.94-19.49,0-27.16-8.68-28.18-19.87H76.21c1.14,20.72,16.65,32.37,34.78,36.22v20.59h28.38V192.46c18.43-3.48,33.09-14.2,33.09-33.56C172.5,131.87,149.5,122.68,128,117.09Z"/></svg>