<?xml version="1.0" encoding="UTF-8" standalone="no"?>
<svg
   viewBox="0 -16 73 115">

  <g
     transform="translate(-29.5,-23.71)"
     fill="#484949"
     data-name="Layer 1"
     id="Layer_1">
    <g
       data-name="Ellipse 69"
       id="Ellipse_69">
      <path
         id="path467"
         d="m 66,23.71 a 36.5,36.5 0 0 1 36.5,36.5 c 0,20.16 -36.5,62.08 -36.5,62.08 0,0 -36.5,-41.92 -36.5,-62.08 A 36.5,36.5 0 0 1 66,23.71 Z" />
    </g>
  </g>
  <g
     id="g472"
     transform="matrix(0.2,0,0,0.2,10.5,10.29)"
     fill="#ffffff">
    <path
       d="m 53.33,76.49 v 127.64 c 0,5.56 4.52,12.34 10.44,12.34 h 125.65 a 13.29,13.29 0 0 0 11.44,-12.34 V 76.49 Z m 73.61,101.3 A 38.86,38.86 0 1 1 167.1,139 39.49,39.49 0 0 1 127,177.79 Z M 189.42,38.67 H 63.77 a 9.76,9.76 0 0 0 -10.44,9 v 0 21.23 H 200.86 V 48.07 a 10.71,10.71 0 0 0 -11.44,-9.4 z M 102.54,61.26 H 60.88 V 46.12 h 41.66 z m 72.29,-1 A 8.44,8.44 0 0 1 166.25,52 v 0 a 8.58,8.58 0 1 1 8.85,8.31 h -0.31 z"
       data-name="Icon map-laundry-2"
       id="Icon_map-laundry-2" />
  </g>
</svg>
